<svg width="105" height="100" viewBox="0 0 105 100" fill="none" xmlns="http://www.w3.org/2000/svg">
<g clip-path="url(#clip0_3895_192)">
<path d="M3.2532 30.1612L51.9853 3.54823L101.996 30.1612V68.387L65.7261 75.4838L51.9853 97.7419L3.2532 70.4838V30.1612Z" fill="white"/>
<path d="M103.995 32.4392C103.995 30.303 102.853 28.3408 101.016 27.2727L54.9145 0.794814C53.9959 0.273205 52.9781 0 51.9354 0C50.8927 0 49.8748 0.273205 48.9563 0.794814L2.97908 27.4963C1.14198 28.5644 0 30.5266 0 32.6627L0.0744741 68.1322C0.0744741 70.2683 1.21645 72.2305 3.05355 73.2985L47.293 98.7084C48.7577 99.5529 50.421 100 52.1092 100C53.7973 100 55.4855 99.5529 56.9502 98.6836L70.4305 90.8594C72.2676 89.7914 73.4096 87.8292 73.4096 85.693L73.3848 78.2911L79.8146 81.9673C80.7332 82.4889 81.751 82.7621 82.7937 82.7621C83.8364 82.7621 84.8543 82.4889 85.7728 81.9673L101.09 73.075C102.927 72.007 104.069 70.0447 104.069 67.9086L103.995 32.4392ZM82.2476 41.6046C81.9496 41.083 81.5276 40.6607 81.0063 40.3627L53.698 24.6647C52.6305 24.0685 51.3396 24.0685 50.2721 24.6647L23.0383 40.4868C21.9708 41.1078 21.3253 42.2255 21.3501 43.4426L21.3749 57.6999C21.3749 58.619 21.8715 59.4883 22.6907 59.9603L34.1105 66.5177C35.2773 67.1883 36.7669 66.3438 36.7669 64.9777L36.742 52.2851C36.742 51.0681 37.3875 49.9255 38.4302 49.3293L50.3465 42.3994C51.3892 41.7785 52.705 41.7785 53.7725 42.3994L65.7137 49.2548C66.235 49.5529 66.6819 50 66.9549 50.4968L53.5739 58.2712C52.6553 58.8177 52.0843 59.7864 52.0843 60.8545L52.1588 94.0636C51.563 94.0636 50.9672 93.9146 50.4458 93.6165L7.77044 69.1009C6.70294 68.5048 6.05746 67.3622 6.05746 66.1451L5.98299 34.625C5.98299 33.4079 6.62846 32.2653 7.67114 31.6692L50.2472 6.95477C51.2899 6.3338 52.6057 6.3338 53.6732 6.95477L96.3486 31.4704C96.8699 31.7685 97.3168 32.2156 97.5899 32.7123L82.2476 41.6046Z" fill="#0B0B0F"/>
</g>
<defs>
<clipPath id="clip0_3895_192">
<rect width="105" height="100" fill="white"/>
</clipPath>
</defs>
</svg>

